<svg width="89" height="40" viewBox="0 0 89 40" fill="none" xmlns="http://www.w3.org/2000/svg">
<path d="M83.1209 13.7046C84.4084 13.7346 85.4775 12.6342 85.5114 11.2493C85.5453 9.86444 84.5289 8.71538 83.2414 8.68544C81.9539 8.6555 80.881 9.7559 80.8509 11.1408C80.817 12.5256 81.8335 13.6747 83.1247 13.7046" fill="#ED1D24"/>
<path d="M67.4039 25.2963C68.7968 27.5083 72.3392 28.0585 75.2078 27.1041C75.0798 41.1511 64.8704 40.7993 67.4039 25.2963ZM75.204 24.9632C71.7557 25.8952 68.6801 24.3157 68.665 21.9277C68.6424 18.4057 74.4549 15.6771 75.204 24.9632ZM59.073 22.6988C56.0877 22.6988 56.8971 19.8879 57.8646 19.8879C59.3817 19.8879 59.073 22.6988 59.073 22.6988ZM52.5867 3.78979C54.0059 3.45293 54.7814 16.1937 49.5789 28.4066C48.1822 21.6133 49.4734 4.53462 52.5867 3.78979ZM88.9145 36.7046C88.9145 36.7046 88.6547 36.1057 88.4627 35.694C87.8453 36.4837 83.0719 41.2746 83.6893 29.9936C83.8813 26.4828 84.4196 17.5486 84.4158 17.5486C84.4497 17.0695 83.6667 16.9984 83.6667 16.9946C82.5524 16.8487 81.0052 16.8449 80.6551 18.7014C79.9586 22.3993 77.139 24.1136 77.139 24.1136C77.1315 24.1136 77.1277 24.121 77.1239 24.1248C75.7311 12.7951 67.0162 16.1151 64.8403 21.3476C62.9015 22.8335 60.9477 22.8036 60.8574 22.7998C60.6918 18.7463 58.0001 18.1512 56.8971 18.6639C53.6596 20.1574 54.6497 25.2626 59.0241 25.2626C58.881 37.2473 52.2253 42.0644 50.2903 31.487C50.3205 31.1576 58.6702 14.3222 55.0148 2.52096C52.598 -5.27918 41.4098 4.99874 47.1545 33.6728C44.3349 38.183 40.7736 39.1898 40.7548 32.7558C40.7435 29.4771 41.6093 17.7507 41.6093 17.7507C41.6583 17.077 41.0221 17.0283 40.7134 16.9909C39.7798 16.8711 37.9841 16.8262 37.7545 18.9783C37.7545 18.9933 37.2538 27.5121 37.2274 28.9493C37.2086 29.93 37.0204 31.6592 37.058 33.4595C35.4619 37.8274 31.4376 39.7063 32.1453 33.3772C32.5142 30.0647 34.5734 22.9608 34.6788 22.594C35.4807 19.7606 32.6648 18.9559 32.2582 18.8137C31.8517 18.6714 29.3257 17.8854 27.466 17.3577C27.5902 16.5904 27.6956 15.868 27.7257 15.4675C27.737 15.2841 27.6994 14.9323 27.2213 14.8724C26.5324 14.7789 25.1207 14.7527 24.8383 15.9204C24.4619 17.8368 23.852 22.5154 23.054 24.267C22.9147 24.559 23.0728 24.69 23.0728 24.69L23.3288 24.9782C23.788 25.4984 24.4355 25.4947 24.9513 25.0156C25.708 24.3157 26.3178 22.3132 26.8147 19.9552C28.313 20.3108 30.4776 20.8535 31.3736 21.3064C31.3472 21.4599 29.9619 26.5951 29.4725 28.9643C28.9869 31.3336 26.8674 39.5978 31.2192 39.9085C34.404 40.1368 36.2938 37.921 37.2989 35.956C39.0607 43.4455 46.3263 38.7968 47.9149 35.7277C49.4433 41.7874 60.1346 43.7561 60.9628 25.2439C61.4032 25.2027 62.5815 24.9744 63.7071 24.5066C62.0884 30.9256 63.5453 39.5679 69.0377 39.9833C74.7184 40.41 77.6585 32.565 77.3084 26.1235C77.6886 25.8952 79.217 24.7648 80.3614 22.9757L79.9662 31.6667C79.7139 38.8155 83.7119 42.9028 88.858 37.543C89.1403 37.2473 88.9145 36.7083 88.9145 36.7083" fill="#ED1D24"/>
<path d="M17.347 14.7602C18.1752 6.08422 20.5318 5.86713 20.5318 5.86713C20.5882 5.86713 29.066 6.41359 31.4602 0.982688C31.5694 0.731916 31.6334 0.338915 30.9294 0.196686C25.516 4.43361 16.0444 0.0207711 6.88909 1.17357C3.03045 1.49546 0 4.69187 0 8.59194C0 16.8075 10.936 17.0096 10.936 14.4533L10.8607 13.2855C10.6913 13.3604 10.4805 13.4539 10.4541 13.4652C7.31449 14.7452 3.94147 13.2518 3.94147 9.54263C3.94147 4.2577 10.7779 5.50033 17.7874 5.8035C15.22 8.00056 13.2549 10.7291 12.95 17.3989C11.9787 17.9903 10.1379 19.1768 9.21934 19.8692C9.04241 20.0039 9.10641 20.1986 9.10641 20.1986C9.10641 20.1986 9.43015 21.5759 9.59579 22.2796C10.1191 21.9465 12.0051 20.7301 12.7354 20.1537C11.8696 28.7286 11.8131 38.0071 7.74364 38.0071C5.65433 38.0071 3.15091 33.1077 6.90039 26.5203C6.90039 26.5203 7.15638 26.0225 6.99827 25.461C6.84016 24.8996 6.34324 23.0319 6.34324 23.0319C-0.515741 29.3162 0.154346 39.9946 8.10504 39.9946C17.3997 39.9946 16.7748 21.4562 17.1851 17.107C17.6971 16.8824 18.2354 16.7589 18.5366 16.7364C18.5704 18.1063 19.7036 19.2067 21.0964 19.2067C22.4893 19.2067 23.6413 18.0951 23.6601 16.6728C23.709 12.7914 18.4274 14.3934 17.3507 14.7639" fill="#ED1D24"/>
<path d="M40.1751 13.7046C41.4626 13.7346 42.5317 12.6342 42.5656 11.2493C42.5995 9.86444 41.5831 8.71538 40.2956 8.68544C39.0081 8.6555 37.9352 9.7559 37.9051 11.1408C37.8712 12.5256 38.8877 13.6747 40.1789 13.7046" fill="#ED1D24"/>
</svg>
